<svg width="500" height="500" viewBox="-105 -105 210 210" xmlns="http://www.w3.org/2000/svg"><rect x="-100" y="-100" width="200" height="200" fill="none" stroke="#ccc" stroke-width="1" /><line x1="50" y1="50" x2="0" y2="80" stroke="black" stroke-width="2" stroke-dasharray="4" marker-end="url(#arrowhead)" /><line x1="0" y1="0" x2="0" y2="80" stroke="orange" stroke-width="2" marker-end="url(#arrowhead)" /><circle cx="0" cy="0" r="8" fill="white" stroke="gray" stroke-width="1" opacity="0.3" /><circle cx="0" cy="0" r="10" fill="white" stroke="black" stroke-width="2" /><text x="0" y="0" font-size="12" text-anchor="middle" dominant-baseline="central" font-family="Arial">1</text><circle cx="0" cy="0" r="4" fill="orange" stroke="black" stroke-width="1" transform="translate(10, -10)" /><circle cx="50" cy="50" r="8" fill="white" stroke="gray" stroke-width="1" opacity="0.3" /><circle cx="0" cy="80" r="10" fill="white" stroke="black" stroke-width="2" /><text x="0" y="80" font-size="12" text-anchor="middle" dominant-baseline="central" font-family="Arial">2</text><circle cx="-50" cy="50" r="8" fill="white" stroke="gray" stroke-width="1" opacity="0.3" /><circle cx="-50" cy="50" r="10" fill="white" stroke="black" stroke-width="2" /><text x="-50" y="50" font-size="12" text-anchor="middle" dominant-baseline="central" font-family="Arial">3</text><circle cx="50" cy="-50" r="8" fill="white" stroke="gray" stroke-width="1" opacity="0.3" /><circle cx="50" cy="-50" r="10" fill="white" stroke="black" stroke-width="2" /><text x="50" y="-50" font-size="12" text-anchor="middle" dominant-baseline="central" font-family="Arial">4</text><circle cx="-50" cy="-50" r="8" fill="white" stroke="gray" stroke-width="1" opacity="0.3" /><circle cx="-50" cy="-50" r="10" fill="white" stroke="black" stroke-width="2" /><text x="-50" y="-50" font-size="12" text-anchor="middle" dominant-baseline="central" font-family="Arial">5</text><defs><marker id="arrowhead" markerWidth="10" markerHeight="7" refX="10" refY="3.5" orient="auto"><polygon points="0 0, 10 3.5, 0 7" fill="black" /></marker></defs></svg>